# xmcd
#
# Track frame offsets:
#	150
#	14653
#	31340
#	39081
#	52052
#	64672
#	79543
#	96901
#	113247
#	131171
#	147265
#	163742
#
# Disc length: 2400 seconds
#
# Revision: 1
# Processed by: cddbd v1.5.2PL0 Copyright (c) Steve Scherf et al.
# Submitted via: audiograbber 1.83.01
#
DISCID=a1095e0c
DTITLE=Kim Olson - Land and Sea
DYEAR=2001
DGENRE=Easy Listening
TTITLE0=Old Lovers
TTITLE1=More Alkie Than Different
TTITLE2=BAM!
TTITLE3=Rebel Without a Claus
TTITLE4=Full Moon Tonight
TTITLE5=This Time Around
TTITLE6=This Wells Gone Dry
TTITLE7=The Gentle Sea
TTITLE8=Rock and Roll Reef
TTITLE9=The Old Town Pier
TTITLE10=Touch the Sea
TTITLE11=Gentle Sea (Instrumental)
EXTD=
EXTT0=
EXTT1=
EXTT2=
EXTT3=
EXTT4=
EXTT5=
EXTT6=
EXTT7=
EXTT8=
EXTT9=
EXTT10=
EXTT11=
PLAYORDER=
